<?xml version="1.0" standalone="no"?>
<!DOCTYPE svg PUBLIC "-//W3C//DTD SVG 1.1//EN" "http://www.w3.org/Graphics/SVG/1.1/DTD/svg11.dtd" >
<svg xmlns="http://www.w3.org/2000/svg">
<metadata>
This is a custom SVG font generated by IcoMoon.
<iconset grid="16"></iconset>
</metadata>
<defs>
<font id="icomoon" horiz-adv-x="512" >
<font-face units-per-em="512" ascent="480" descent="-32" />
<missing-glyph horiz-adv-x="512" />
<glyph class="hidden" unicode="&#xf001;" d="M0,480L 512 -32L0 -32 z" horiz-adv-x="0" />
<glyph unicode="&#xe000;" d="M 64,64L 256,384L 448,64 z" data-tags="up" />
<glyph unicode="&#xe001;" d="M 448,384L 256,64L 64,384 z" data-tags="down" />
<glyph unicode="&#x2668;" d="M 138.541,181.1l 47.060-27.15l-39.236,146.413L0,261.133l 47.021-27.365L 4.604,160.297
			c-6.104-10.585-6.104-27.156,0-37.729l 46.228-80.056c 3.669-5.806, 8.42-10.006, 16.356-14.571
			c 7.938-4.566, 19.557-4.647, 19.557-4.647l 133.171,0 L 219.916,129.368 L 108.556,129.368 L 138.541,181.1zM 200.443,287.832l 55.968,96.266l 29.644-51.91l-47.111-27.020l 146.271-39.687l 39.674,146.24l-47.309-26.895
			l-42.188,73.606c-6.070,10.592-20.398,18.92-32.609,18.955l-92.47,0 c-6.591,0-13.271-1.941-20.792-6.54
			c-7.521-4.599-13.112-14.374-13.112-14.374l-67.355-115.509L 200.443,287.832zM 511.895,146.586c-0.72,10.188-5.349,18.155-5.349,18.155l-68.358,115.813l-91.119-53.579l 56.412-95.997
			l-58.802,0 l0,53.961 l-107.75-108.004l 107.75-106.324l0,54.427 l 84.854,0 c 12.195,0.097, 26.478,9.154, 32.492,19.772l 45.597,80.396
			C 510.859,130.909, 512.438,138.895, 511.895,146.586z" data-tags="cleanup" />
<glyph unicode="&#xe002;" d="M 115.099,364.901L 396.9,364.901L 396.9,83.1L 115.099,83.1z" data-tags="stop" />
<glyph unicode="&#xe003;" d="M 370.578,286.95L 256,402.268L 141.421,286.95L 221,286.95L 221,166.285L 291,166.285L 291,286.95 		zM 90.5,123.268L 421.5,123.268L 421.5,43L 90.5,43z" data-tags="restore" />
<glyph unicode="&#xe004;" d="M 256,36.667c-103.461,0-187.333,83.872-187.333,187.333S 152.539,411.333, 256,411.333c 49.549,0, 94.595-19.242, 128.094-50.655
		l-75.561-51.979L 512,230.533l-0.252,217.964l-70.119-48.238C 394.988,449.37, 329.077,480, 256,480C 114.615,480,0,365.385,0,224
		s 114.615-256, 256-256c 106.509,0, 197.813,65.049, 236.385,157.58l-64.756,23.256C 398.668,82.8, 332.727,36.667, 256,36.667z" data-tags="restart" />
<glyph unicode="&#xe005;" d="M 387.334,335.667c-40.315,0-73-30.894-73-69.003L 314.334,242 L 59.333,242 c-6.627,0-12-5.373-12-12l0-12 c0-6.628, 5.373-12, 12-12L 81,206 
		c 6.627,0, 12-5.372, 12-12l0-5 c0-6.628-5.373-12-12-12L 69.333,177 c-6.627,0-12-5.372-12-12l0-32 c0-6.628, 5.373-12, 12-12l 7,0 l0,22.5 
		c0,6.628, 5.373,12, 12,12L 90,155.5 c 6.627,0, 12-5.372, 12-12L 102,121 l 16.334,0 l0,22.5 c0,6.628, 5.373,12, 12,12L 132,155.5 c 6.627,0, 12-5.372, 12-12L 144,121 l 7,0 
		c 6.627,0, 12,5.372, 12,12l0,32 c0,6.628-5.373,12-12,12l-11.666,0 c-6.627,0-12,5.372-12,12l0,5 c0,6.628, 5.373,12, 12,12l 175,0 l0-24.663 
		c0-38.108, 32.686-69.003, 73-69.003c 40.315,0, 73.002,30.895, 73.002,69.003l0,85.326 C 460.334,304.773, 427.648,335.667, 387.334,335.667
		z M 432.666,193.654c0-27.107-20.297-49.081-45.332-49.081c-25.037,0-45.334,21.974-45.334,49.081l0,60.69 
		c0,27.107, 20.297,49.081, 45.334,49.081c 25.035,0, 45.332-21.974, 45.332-49.081L 432.666,193.654 z" data-tags="reset_password" />
<glyph unicode="&#xe006;" d="M 143.391,460.312L 143.391,440.312L 412.609,440.312L 412.609,52.688L 431.609,52.688L 431.609,460.312 		zM 114.391,430.312L 114.391,410.312L 382.609,410.312L 382.609,22.688L 402.609,22.688L 402.609,430.312 		zM 84.391,400.312l0-407.624 L 372.61-7.312 L 372.61,400.312 L 84.391,400.312 z M 316.391,32.603L 140.609,32.603 c-8.25,0-15,6.146-15,13.658
			s 6.75,13.658, 15,13.658L 316.39,59.919 c 8.25,0, 15-6.146, 15-13.658S 324.641,32.603, 316.391,32.603z M 316.391,107.7L 140.609,107.7 
			c-8.25,0-15,6.146-15,13.657c0,7.513, 6.75,13.658, 15,13.658L 316.39,135.015 c 8.25,0, 15-6.146, 15-13.658
			C 331.39,113.846, 324.641,107.7, 316.391,107.7z M 316.391,182.799L 140.609,182.799 c-8.25,0-15,6.146-15,13.658s 6.75,13.658, 15,13.658L 316.39,210.115 
			c 8.25,0, 15-6.146, 15-13.658S 324.641,182.799, 316.391,182.799z M 316.391,257.897L 140.609,257.897 c-8.25,0-15,6.146-15,13.658
			c0,7.512, 6.75,13.658, 15,13.658L 316.39,285.213 c 8.25,0, 15-6.146, 15-13.658C 331.39,264.043, 324.641,257.897, 316.391,257.897z
			 M 316.391,332.995L 140.609,332.995 c-8.25,0-15,6.146-15,13.658c0,7.512, 6.75,13.658, 15,13.658L 316.39,360.311 c 8.25,0, 15-6.146, 15-13.658
			C 331.39,339.141, 324.641,332.995, 316.391,332.995z" data-tags="reports" />
<glyph unicode="&#xe007;" d="M 194.615,235.558l 1.47-1.47l 49.829,49.828l-1.47,1.47l-44.187,44.188L 178.87,350.96l-11.566,11.567l-59.689,59.688
			c-11.635,11.634-30.673,11.634-42.307,0l-7.522-7.521c-11.635-11.635-11.635-30.673,0-42.309l 59.689-59.688l0-0.001 L 194.615,235.558
			zM 438.821,79.255L 409.207,94.768L 302.988,200.984L 279.016,177.012L 385.234,70.793L 400.746,41.18L 441.993,21.085L 458.916,38.007 		zM 359.142,418.454c-15.896-15.896-21.76-38.016-17.613-58.514L 122.653,141.064c-24.729,7.018-52.422,0.808-71.89-18.66
		c-16.708-16.709-23.646-39.479-20.844-61.231l 41.519,41.519l 49.886-13.366l 13.366-49.885l-41.52-41.52
		c 21.756-2.804, 44.524,4.133, 61.233,20.843c 19.467,19.468, 25.678,47.159, 18.661,71.891L 391.94,309.529
		c 20.498-4.146, 42.619,1.717, 58.515,17.613c 25.217,25.215, 25.217,66.098,0,91.313C 425.239,443.669, 384.357,443.669, 359.142,418.454z
		 M 443.825,359.027l-25.256-25.256l-35.492,3.999l-19.002,30.242l 11.796,33.712l 33.713,11.796l 30.242-19.002L 443.825,359.027z" data-tags="repair" />
<glyph unicode="&#xe008;" d="M 301.604,422.091L 287.922,423.801L 298.183,414.11L 318.99,414.11L 310.439,423.801 		zM 356.898,374.492c 0.284-0.855, 8.835-4.562, 8.835-4.562s 2.28-7.126, 1.426-8.551s-1.425-7.981-1.426-9.121
			c-0.001-1.14, 5.701-4.275, 8.552-4.846c 2.852-0.571, 7.98,0, 9.69,0s 3.705,1.995, 4.56,3.991c 0.855,1.995-3.135,5.7-4.56,5.984
			c-1.426,0.285-6.271,8.267-7.125,9.121c-0.854,0.855-8.837,4.275-8.837,4.275s-3.705,12.541-3.989,13.681
			c-0.285,1.14-4.274,4.275-5.131,4.275c-0.854,0-5.416,0-5.416,0c-2.565-2.565-1.14-7.126,0-8.551S 356.613,375.347, 356.898,374.492
			zM 352.041,355.396c 2.267-2.28, 5.998-4.561, 7.422-2.28c 1.426,2.281-0.283,3.42, 3.992,7.696
			c 4.274,4.276-0.285,2.565-1.711,5.7c-1.426,3.135-1.426,3.135-2.281,4.275c-0.854,1.14-3.704,1.425-6.27,1.425
			c-2.564,0-2.564-2.28-3.99-5.7c0,0-0.285-1.425,0-3.135C 349.487,361.666, 349.772,357.675, 352.041,355.396zM 416.469,306.086c-2.279,0.57-6.128-4.085-4.275-2.85c 1.711,1.14, 5.7-2.28, 4.53-3.666c-1.17-1.386-2.25-4.601-1.396-6.025
			c 0.855-1.425, 2.565,0, 4.847,1.425c 2.281,1.425, 0.285,5.416,0,8.267C 419.889,306.086, 418.748,305.517, 416.469,306.086zM 484.498,320.542c-12.492,29.535-30.369,56.054-53.136,78.82c-22.767,22.766-49.285,40.644-78.819,53.136
			C 321.947,465.439, 289.468,472, 256,472c-33.466,0-65.947-6.561-96.542-19.501c-29.534-12.492-56.054-30.37-78.819-53.136
			c-22.767-22.767-40.645-49.285-53.137-78.82C 14.561,289.948, 8,257.466, 8,224c0-33.467, 6.562-65.947, 19.501-96.542
			c 12.492-29.535, 30.37-56.054, 53.137-78.82c 22.766-22.766, 49.284-40.644, 78.819-53.136C 190.052-17.438, 222.534-24, 256-24
			c 33.468,0, 65.947,6.562, 96.543,19.502c 29.534,12.492, 56.054,30.369, 78.819,53.136c 22.767,22.768, 40.645,49.285, 53.136,78.82
			C 497.438,158.053, 504,190.533, 504,224C 504,257.466, 497.438,289.948, 484.498,320.542z M 463.781,258.466
			c 1.711-4.111, 4.275-16.509, 2.993-16.509s-2.565,5.631-7.269,8.587c-4.702,2.956-10.688,4.666-11.543,2.956
			c-0.855-1.71-2.565-9.76-4.703-2.956c-2.139,6.804, 5.559,5.094-3.42,10.651c-8.979,5.558-10.262,8.979-14.108,14.964
			c-3.849,5.985-10.244,9.833-17.521,9.833c-7.277,0-11.125,3.848-17.11,0c-2.819-1.813-6.873-3.854-10.908-6.032
			c-0.313,2.76-0.194,5.607, 1.503,6.032c 3.42,0.854, 3.782,0.427, 7.877,1.71c 4.094,1.283, 7.087,2.138, 6.659,7.696
			s-1.71,11.543, 4.702,11.971c 6.413,0.428, 13.682,0.428, 15.392,3.848s 17.103-18.384, 17.956-20.094
			c 0.855-1.71, 0.855-11.543, 3.421-9.833c 2.566,1.71, 4.275,7.696, 4.275,7.696s-12.826,15.391-14.536,17.956s-5.131,7.268-4.275,9.406
			c 0.854,2.139, 3.849,3.42, 7.695,1.283c 3.848-2.137, 5.131-5.985, 5.985-8.123c 0.854-2.138-0.429-0.854, 2.564-7.696
			c 2.993-6.84,0-8.55, 2.565-9.833c 2.564-1.283, 4.703-4.703, 4.275-6.841c-0.429-2.138-3.422-2.993-2.565-5.558
			c 0.854-2.565, 2.138-4.18, 4.703-5.51c 2.563-1.331, 4.274-3.373, 4.702,0s 2.138,5.083,0,6.792c-2.139,1.71-2.139-1.71-2.139,1.71
			s 2.532,2.138, 3.19,5.13c 0.372,1.693, 1.491,12.278, 2.315,22.083c 2.477-5.778, 4.703-11.686, 6.683-17.708
			c-2.024-2.919-3.521-6.030-3.638-8.508c-0.284-5.986-3.336-11.401-2.097-13.682c 0.753-1.383, 7.132-4.862, 13.241-7.641
			c 0.343-1.934, 0.655-3.878, 0.946-5.83C 466.789,258.641, 463.134,260.024, 463.781,258.466z M 413.066,375.162
			c-1.245-2.883-1.911-5.615-1.017-7.21c 2.564-4.576, 9.833-10.563, 7.694-13.127c-2.138-2.565-0.121-1.228-9.832,2.564
			c-1.67,0.652-3.185,1.25-4.582,1.774l-1.688,5.066l 3.99,3.135l-3.136,5.701l-3.705,6.556l-0.31,7.605
			C 404.834,383.372, 409.035,379.35, 413.066,375.162z M 38.057,219.484l 5.601-13.44l 2.281,9.729l 7.979-18.852l 9.121-10.261l 10.262,2.85
			l 9.12-6.271l 13.111-8.551l 11.401-7.98l 14.82-2.28l 3.99-11.399l-9.121-2.852l 13.111-33.063l 20.522-21.092l 22.802-12.541
			L 185.6,57.26l 9.121-15.962l 13.681-15.391l 35.71-19.583C 130.732,12.421, 40.382,105.145, 38.057,219.484z M 256,6
			c-2.259,0-4.506,0.046-6.748,0.114l-21.469,16.374c0,0-3.99,8.551-3.99,10.261c0,1.711, 1.71,11.4, 1.71,11.4l 5.7,12.541
			l 2.28,13.682l 10.832,7.979L 256,91.465l 0.735,18.241l 9.241,7.41l0,11.972 l-9.978,11.4l-19.667,5.13l-17.559,0 l-14.079,20.521
			l-17.386,10.832l-19.382,6.271l-19.382,3.421l-22.23-0.57l-9.121-9.12l-9.121,0 l-7.98,6.841l 3.42,7.979
			c0,0-9.121,5.131-11.972,5.701c-2.851,0.569-4.561,11.971-4.561,11.971l 1.71,6.312l 17.101,3.949l 7.98-3.949l 11.971-4.031
			l 13.111,4.031l-7.98,4.52l-17.671,1.141L 102.373,224l-13.11-4.275L 74.44,219.725 l-2.28-12.541l-9.12,0 l0,34.203 l 18.813,5.701l 3.99,4.56
			l 8.551-7.411l 7.98-13.111l 3.99,0 l-3.42,6.271l-2.851,21.091l 6.841,13.111l 9.121,0 L 116.055,290.41 l 7.979,0 l0,7.411 l 6.271,9.121l 9.69,2.85l0,5.416 
			l 7.41,5.416l 8.836-5.416l 5.415,7.696l 12.826,5.416l0,5.13 l-13.681,0 l-0.57,13.111l-5.13,4.561l 8.551,2.565l 19.382-2.565l-6.841-3.99
			l 3.705-8.266l 5.701-0.285l 7.979,1.425c0,0-1.71-3.99-1.71-4.845c0-0.855, 5.985,0, 5.985,0l-0.855,5.13l 7.695,1.71l-4.845,5.415
			l-6.271,3.991l-8.835,2.85l-1.71,3.42l 3.99,1.71l 7.981-5.131l 1.425,11.401l-7.41,8.836l-8.267,1.425l 3.991,15.676l-3.136,6.841
			l-10.831-7.981l-5.985,0 l 3.99,8.551L 167.074,401l-3.99,5.415l-4.56-7.41l-3.42,4.561L 143.418,390.74l 0.57-8.551l-11.401-13.111
			l-7.979-6.271l 0.57-17.101l-6.842,11.401l 2.28,9.121l-10.261,4.561l 1.746,16.956c 20.434,17.972, 44.254,32.177, 70.386,41.537
			l-0.084-0.348l-7.063-5.415c0,0-7.696-6.841-8.267-7.696c-0.57-0.855-6.271-4.562-6.271-4.562l 7.41-0.57l 1.426-6.84l 8.836,0 
			l 5.13,3.42l 3.99,5.701l0,3.99 l 1.71,4.275l 4.845-1.71c0,0, 6.556,0, 8.836,0s0,7.411,0,7.411l-1.893,8.085
			c 8.627,2.238, 17.462,3.959, 26.469,5.132c-2.846-4.396-5.338-8.373-5.338-8.373s-5.559-17.957-2.565-20.094
			s 17.743-18.812, 23.3-15.391c 5.559,3.42, 2.353,17.956, 8.552,21.376c 6.198,3.42, 23.301,11.543, 29.071,14.964
			c 2.408,1.427, 5.112,4.231, 7.449,7.016c 28.237-4.158, 54.708-13.732, 78.335-27.631l 0.792-16.185c0,0, 9.406-10.797, 9.977-11.652
			c 0.568-0.855, 7.979-6.271, 7.979-6.271s 3.136,5.13, 3.42,4.275c 0.285-0.855, 2.565-4.275, 2.565-4.275l-2.565-4.275l 6.271-7.125
			l 4.562-3.135l 1.002-2.63c-3.803,0.868-6.365,0.229-8.412-3.355c-3.422-5.985, 0.568-12.398-5.273-13.253
			s-12.684-4.275-13.538-5.558s-2.565-2.138, 5.13-3.848c 7.696-1.71, 9.12-2.139, 8.408-7.269s 3.136-8.979-3.277-8.979
			s-8.588,2.993-13.059,2.993s-9.173,3.848-7.463-2.993c 1.71-6.84, 4.845-9.406, 2.85-11.116s-7.125-0.428-6.697-5.13
			c 0.428-4.703, 2.146-15.391, 6.203-14.964c 4.059,0.428, 7.905,3.823, 9.188-0.012c 0.956-2.858-0.697-8.093-0.542-10.932
			c-2.13-1.343-4.033-2.715-5.443-4.103c-5.13-5.047-7.695-10.080-5.984-13.763c 1.709-3.684-1.19-1.973-5.299-3.684
			c-4.107-1.71-16.507-20.094-16.507-20.094l-3.42-26.935l0-14.536 l 3.849-16.246l 17.932-19.238l 21.829,0 l 13.682,2.138l 10.261-14.536
			l-5.559-8.123l 4.275-12.826l-18.813-34.203l-5.984-2.564l-3.849-6.413l-9.121-20.094l-13.692-11.972l-12.672-8.551
			c0,0, 7.016-4.274, 9.707-4.274s 24.068,10.688, 25.352,11.115c 0.555,0.186, 11.988,5.81, 24.923,12.339
			C 361.025,26.289, 310.885,6, 256,6z" data-tags="live" />
<glyph unicode="&#xe009;" d="M 256,440.292L 6.248,7.708l 499.504,0 L 256,440.292z M 281.878,59.465l-51.756,0 l0,51.757 l 51.756,0 L 281.878,59.465 z M 230.122,158.138l0,140 
		l 51.756,0 l0-140 L 230.122,158.138 z" data-tags="incidents" />
<glyph unicode="&#xe00a;" d="M 256,480C 114.615,480,0,365.385,0,224s 114.615-256, 256-256c 141.386,0, 256,114.615, 256,256S 397.385,480, 256,480z M 226.634,397.922
		c 8.046,8.134, 17.788,12.203, 29.232,12.203c 11.621,0, 21.457-4.069, 29.501-12.203c 8.045-8.138, 12.068-17.927, 12.068-29.367
		c0-11.443-4.068-21.187-12.203-29.232c-8.137-8.046-17.926-12.069-29.367-12.069c-11.444,0-21.187,4.023-29.232,12.069
		c-8.046,8.046-12.068,17.789-12.068,29.232C 214.564,379.995, 218.587,389.784, 226.634,397.922z M 323.719,37.875L 188.282,37.875 l0,9.656 
		c 11.083,0.354, 19.311,3.573, 24.673,9.653c 3.575,4.111, 5.364,15.019, 5.364,32.72L 218.319,236.337 c0,17.701-2.057,29.006-6.168,33.926
		c-4.115,4.916-12.068,7.731-23.869,8.448l0,9.923 l 105.13,0 l0-198.729 c0-17.701, 2.056-29.010, 6.17-33.927
		c 4.109-4.92, 12.156-7.735, 24.138-8.446L 323.72,37.875 z" data-tags="information" />
<glyph unicode="&#xe00b;" d="M 472,220L 472,8L 40,8L 40,440L 252,440L 212,480L0,480L0-32L 512-32L 512,180 	zM 512,480L 256,480L 358.5,377.5L 188,207L 239,156L 409.5,326.5L 512,224 	z" data-tags="external_link" />
<glyph unicode="&#xe00c;" d="M 74.080,87.534L 53.778,107.809L 414.861,469.286L 435.359,448.814 			zM 111.893,49.764L 82.801,78.814L 443.689,440.487L 472.783,411.437 			zM 65.507-6.959L 3.666-29.953l 23.454,63.465c0,0, 18.366-1.618, 25.077-15.177
				C 61.327-0.122, 65.507-6.959, 65.507-6.959zM 61.164,27.005c 7.554-15.265, 12.628-24.723, 15.472-29.831l 54.059,20.099l-80.010,80.010L 32.073,46.92
				C 39.965,45.175, 54.612,40.24, 61.164,27.005zM 140.683,20.929L 120.385,41.203L 481.468,402.681L 501.965,382.21 			zM 505.066,391.037l 5.838,5.85c0,0, 3.59,17.404-29.579,50.521c-33.169,33.12-50.563,29.493-50.563,29.493l-5.773-5.787
				L 505.066,391.037z" data-tags="edit" />
<glyph unicode="&#xe00d;" d="M 423.22,422.61l-77.68,0 L 345.54,481 L 149.515,481 l0-58.39 L 71.835,422.61 l-31.28-55.263L 454.5,367.347 L 423.22,422.61z M 179.753,451.805l 135.55,0 L 315.303,422.61 l-135.55,0 
		L 179.753,451.805 zM 71.835,346.494L 103.116-32L 391.94-32 l 31.28,378.494L 71.835,346.494 z M 158.899,7.622l-31.28,280.481l 20.854,0 l 31.279-280.481L 158.899,7.622 
		z M 260.561,7.622l-20.854,0 L 239.707,288.104 l 20.854,0 L 260.561,7.622 z M 346.582,7.622l-20.854,0 l 20.854,280.481l 20.854,0 L 346.582,7.622z" data-tags="delete" />
<glyph unicode="&#xe00e;" d="M 362.2,480.177L 149.977,480.177 L-0.088,330.112l0-212.224 l 150.065-150.063l 212.224-0.001l 150.064,150.064L 512.265,330.112 L 362.2,480.177z
		 M 289.084,71.838l-65.991,0 l0,65.994 l 65.991,0 L 289.084,71.838 z M 289.084,197.652l-65.991,0 L 223.093,376.161 l 65.991,0 L 289.084,197.652 z" data-tags="critical" />
<glyph unicode="&#xe00f;" d="M 118,211L 394,211L 394,77L 118,77zM 436,420l0-61 c0-22-18-40-40-40l-16,0 c-22,0-40,18-40,40L 340,420 L 165,420 l0-61 c0-22-18-40-40-40l-16,0 c-22,0-40,18-40,40L 69,420 L0,420 l0-452 l 512,0 L 512,420 L 436,420 
		z M 479,2L 33,2 L 33,287.5 l 446,0 L 479,2 zM 93,458c0,12.1, 9.9,22, 22,22l 4,0 c 12.101,0, 22-9.9, 22-22l0-94 c0-12.1-9.899-22-22-22l-4,0 c-12.1,0-22,9.9-22,22L 93,458 zM 364,458c0,12.1, 9.9,22, 22,22l 4,0 c 12.101,0, 22-9.9, 22-22l0-94 c0-12.1-9.899-22-22-22l-4,0 c-12.1,0-22,9.9-22,22L 364,458 z" data-tags="calendar" />
<glyph unicode="&#xe010;" d="M 291,281.603L 291,402.268L 221,402.268L 221,281.603L 141.421,281.603L 255.999,166.285L 370.578,281.603 	zM 90.5,123.268L 421.5,123.268L 421.5,43L 90.5,43z" data-tags="backup" />
<glyph unicode="&#xe011;" d="M 443.586,251.336l 58.15,46.19l-25.684,57.74l-4.486-0.627l-0.266,0.599l-69.594-9.984
		c-9.646,11.599-20.541,21.868-32.396,30.694l 8.459,73.807L 318.775,472.419L 273.73,412.715c-14.861,1.409-29.984,1.077-45.065-1.129
		L 182.47,469.733L 124.729,444.050l 10.356-74.049c-11.741-9.716-22.125-20.715-31.034-32.686l-73.809,8.456l-22.666-58.99l 59.708-45.053
		c-1.397-14.705-1.078-29.662, 1.062-44.589l-54.833-43.266l 0.27-0.607l-3.521-2.797l 25.678-57.734l 74.056,10.355
		c 9.714-11.746, 20.717-22.125, 32.69-31.039l-8.459-73.805l 58.986-22.666l 45.059,59.703c 14.855-1.406, 29.981-1.078, 45.060,1.131
		l 46.193-58.152l 57.736,25.687l-10.353,74.051c 11.736,9.717, 22.123,20.715, 31.039,32.688l 73.802-8.459l 22.672,58.99l-59.709,45.055
		C 446.127,221.133, 445.797,236.252, 443.586,251.336z M 218.466,308.382c 46.603,20.731, 101.19-0.244, 121.923-46.856
		c 20.725-46.6-0.248-101.184-46.854-121.917c-46.605-20.728-101.191,0.246-121.924,46.854
		C 150.883,233.073, 171.86,287.652, 218.466,308.382z" data-tags="settings" />
<glyph unicode="&#xe012;" d="M 499.859,19.613L 385.385,134.090c 26.906,35.221, 42.902,79.223, 42.902,126.966c0,115.617-93.727,209.342-209.343,209.342
		S 9.602,376.672, 9.602,261.056s 93.726-209.341, 209.342-209.341c 47.745,0, 91.747,15.994, 126.966,42.902L 460.387-19.86
		c 3.383-3.384, 8.866-3.384, 12.251,0l 27.222,27.224C 503.243,10.746, 503.243,16.229, 499.859,19.613z M 218.944,110.268
		c-83.278,0-150.789,67.512-150.789,150.788c0,83.279, 67.511,150.789, 150.789,150.789s 150.789-67.51, 150.789-150.789
		C 369.733,177.778, 302.222,110.268, 218.944,110.268z" data-tags="magnifier" />
<glyph unicode="&#xe013;" d="M 86,404L 446,224L 86,44 	z" data-tags="start" />
<glyph unicode="&#xf000;" d="M0,480L 512-32L0-32 z" horiz-adv-x="0" />
<glyph unicode="&#xe014;" d="M 56.005,102.070L 377.93,423.995L 455.997,345.929L 134.071,24.003zM 377.931,24.005L 56.005,345.931L 134.072,423.997L 455.998,102.072z" data-tags="abort" />
<glyph unicode="&#xe015;" d="M 76,410.758L 166.578,410.758L 166.578,37.24L 76,37.24zM 226.612,410.758L 476,224L 226.612,37.24 		z" data-tags="resume" />
<glyph unicode="&#xe016;" d="M 295.416,98.122l-37.518,0 l-71.666,0 l0-79.578 L 70.916,133.121L 186.233,247.7l0-79.578 l 71.666,0 l 37.518,0 
		c 41.723,0, 75.668,33.943, 75.668,75.667c0,41.723-33.945,75.667-75.668,75.667L 110.75,319.456 l0,70 l 184.666,0 
		c 80.322,0, 145.668-65.347, 145.668-145.667S 375.738,98.122, 295.416,98.122z" data-tags="revert" />
<glyph unicode="&#xe017;" d="M 318.16,454.4L 255.89,395.168l 196.040-90.155L 512,364.748
				L 318.16,454.4z M0,364.55l 62.23-59.737l 193.66,90.355L 195.86,454.4L0,364.55zM 511.92,202.498L 452.205,296.843L 264,210.197L 264-6.4L 452,90.42L 452,174.826 	zM 61.015,296.843L 1.163,202.498L 61,174.824L 61,90.42L 250-6.4L 250,210.197 	z" data-tags="fixpack" />
<glyph unicode="&#x20;" horiz-adv-x="256" />
</font>
</defs>
</svg>
